<svg width="400" height="400" viewBox="0,0,400,400" style="max-width: 100%; height: auto; height: intrinsic;"><g transform="translate(40,0)" fill="none" font-size="10" font-family="sans-serif" text-anchor="end"><g class="tick" opacity="1" transform="translate(0,370)"><line stroke="currentColor" x2="-6"></line><line stroke="currentColor" x2="360" stroke-opacity="0.1"></line><text fill="currentColor" x="-9" dy="0.32em">0%</text></g><g class="tick" opacity="1" transform="translate(0,318.52941176470586)"><line stroke="currentColor" x2="-6"></line><line stroke="currentColor" x2="360" stroke-opacity="0.1"></line><text fill="currentColor" x="-9" dy="0.32em">5%</text></g><g class="tick" opacity="1" transform="translate(0,267.0588235294117)"><line stroke="currentColor" x2="-6"></line><line stroke="currentColor" x2="360" stroke-opacity="0.1"></line><text fill="currentColor" x="-9" dy="0.32em">10%</text></g><g class="tick" opacity="1" transform="translate(0,215.58823529411765)"><line stroke="currentColor" x2="-6"></line><line stroke="currentColor" x2="360" stroke-opacity="0.1"></line><text fill="currentColor" x="-9" dy="0.32em">15%</text></g><g class="tick" opacity="1" transform="translate(0,164.11764705882354)"><line stroke="currentColor" x2="-6"></line><line stroke="currentColor" x2="360" stroke-opacity="0.1"></line><text fill="currentColor" x="-9" dy="0.32em">20%</text></g><g class="tick" opacity="1" transform="translate(0,112.64705882352943)"><line stroke="currentColor" x2="-6"></line><line stroke="currentColor" x2="360" stroke-opacity="0.1"></line><text fill="currentColor" x="-9" dy="0.32em">25%</text></g><g class="tick" opacity="1" transform="translate(0,61.17647058823535)"><line stroke="currentColor" x2="-6"></line><line stroke="currentColor" x2="360" stroke-opacity="0.1"></line><text fill="currentColor" x="-9" dy="0.32em">30%</text></g><text x="-40" y="10" fill="currentColor" text-anchor="start">↑ 割合</text></g><g fill="steelblue"><rect x="48" y="287.6470588235294" height="82.35294117647061" width="24"><title>九州
8.0%</title></rect><rect x="80" y="277.3529411764706" height="92.64705882352939" width="24"><title>四国
9.0%</title></rect><rect x="112" y="277.3529411764706" height="92.64705882352939" width="24"><title>中国
9.0%</title></rect><rect x="144" y="20" height="350" width="24"><title>近畿
34.0%</title></rect><rect x="176" y="277.3529411764706" height="92.64705882352939" width="24"><title>東海
9.0%</title></rect><rect x="208" y="277.3529411764706" height="92.64705882352939" width="24"><title>北陸信越
9.0%</title></rect><rect x="240" y="246.47058823529414" height="123.52941176470586" width="24"><title>東京
12.0%</title></rect><rect x="272" y="256.764705882353" height="113.23529411764702" width="24"><title>南関東
11.0%</title></rect><rect x="304" y="267.0588235294117" height="102.94117647058829" width="24"><title>北関東
10.0%</title></rect><rect x="336" y="308.235294117647" height="61.764705882352985" width="24"><title>東北
6.0%</title></rect><rect x="368" y="287.6470588235294" height="82.35294117647061" width="24"><title>北海道
8.0%</title></rect></g><g transform="translate(0,370)" fill="none" font-size="10" font-family="sans-serif" text-anchor="middle"><path class="domain" stroke="currentColor" d="M40,0H400"></path><g class="tick" opacity="1" transform="translate(60,0)"><line stroke="currentColor" y2="6"></line><text fill="currentColor" y="9" dy="0.71em">九州</text></g><g class="tick" opacity="1" transform="translate(92,0)"><line stroke="currentColor" y2="6"></line><text fill="currentColor" y="9" dy="0.71em">四国</text></g><g class="tick" opacity="1" transform="translate(124,0)"><line stroke="currentColor" y2="6"></line><text fill="currentColor" y="9" dy="0.71em">中国</text></g><g class="tick" opacity="1" transform="translate(156,0)"><line stroke="currentColor" y2="6"></line><text fill="currentColor" y="9" dy="0.71em">近畿</text></g><g class="tick" opacity="1" transform="translate(188,0)"><line stroke="currentColor" y2="6"></line><text fill="currentColor" y="9" dy="0.71em">東海</text></g><g class="tick" opacity="1" transform="translate(220,0)"><line stroke="currentColor" y2="6"></line><text fill="currentColor" y="9" dy="0.71em">北陸信越</text></g><g class="tick" opacity="1" transform="translate(252,0)"><line stroke="currentColor" y2="6"></line><text fill="currentColor" y="9" dy="0.71em">東京</text></g><g class="tick" opacity="1" transform="translate(284,0)"><line stroke="currentColor" y2="6"></line><text fill="currentColor" y="9" dy="0.71em">南関東</text></g><g class="tick" opacity="1" transform="translate(316,0)"><line stroke="currentColor" y2="6"></line><text fill="currentColor" y="9" dy="0.71em">北関東</text></g><g class="tick" opacity="1" transform="translate(348,0)"><line stroke="currentColor" y2="6"></line><text fill="currentColor" y="9" dy="0.71em">東北</text></g><g class="tick" opacity="1" transform="translate(380,0)"><line stroke="currentColor" y2="6"></line><text fill="currentColor" y="9" dy="0.71em">北海道</text></g></g></svg>